<svg width="20" height="20" viewBox="0 0 20 20" fill="none" xmlns="http://www.w3.org/2000/svg">
<path d="M8.74984 3.41669V16.5834C8.74984 17.8334 8.21858 18.3334 6.89045 18.3334H3.52589C2.19776 18.3334 1.6665 17.8334 1.6665 16.5834V3.41669C1.6665 2.16669 2.19776 1.66669 3.52589 1.66669H6.89045C8.21858 1.66669 8.74984 2.16669 8.74984 3.41669ZM16.4738 1.66669H13.1092C11.7811 1.66669 11.2498 2.16669 11.2498 3.41669V10.75C11.2498 12 11.7811 12.5 13.1092 12.5H16.4738C17.8019 12.5 18.3332 12 18.3332 10.75V3.41669C18.3332 2.16669 17.8019 1.66669 16.4738 1.66669Z" fill="#306BFF"/>
</svg>
