<svg width="20" height="20" viewBox="0 0 20 20" fill="none" xmlns="http://www.w3.org/2000/svg">
<path d="M3.54199 2.77777C3.04471 2.77777 2.5678 2.97532 2.21617 3.32695C1.86454 3.67858 1.66699 4.15549 1.66699 4.65277V6.7361C1.66699 7.23338 1.86454 7.7103 2.21617 8.06193C2.5678 8.41356 3.04471 8.6111 3.54199 8.6111H5.62533C6.12261 8.6111 6.59952 8.41356 6.95115 8.06193C7.30278 7.7103 7.50033 7.23338 7.50033 6.7361V4.65277C7.50033 4.15549 7.30278 3.67858 6.95115 3.32695C6.59952 2.97532 6.12261 2.77777 5.62533 2.77777H3.54199ZM2.91699 4.65277C2.91699 4.48701 2.98284 4.32804 3.10005 4.21083C3.21726 4.09362 3.37623 4.02777 3.54199 4.02777H5.62533C5.79109 4.02777 5.95006 4.09362 6.06727 4.21083C6.18448 4.32804 6.25033 4.48701 6.25033 4.65277V6.7361C6.25033 6.90186 6.18448 7.06083 6.06727 7.17805C5.95006 7.29526 5.79109 7.3611 5.62533 7.3611H3.54199C3.37623 7.3611 3.21726 7.29526 3.10005 7.17805C2.98284 7.06083 2.91699 6.90186 2.91699 6.7361V4.65277ZM9.37533 3.6111C9.20957 3.6111 9.05059 3.67695 8.93338 3.79416C8.81617 3.91137 8.75033 4.07034 8.75033 4.2361C8.75033 4.40186 8.81617 4.56084 8.93338 4.67805C9.05059 4.79526 9.20957 4.8611 9.37533 4.8611H17.7087C17.8744 4.8611 18.0334 4.79526 18.1506 4.67805C18.2678 4.56084 18.3337 4.40186 18.3337 4.2361C18.3337 4.07034 18.2678 3.91137 18.1506 3.79416C18.0334 3.67695 17.8744 3.6111 17.7087 3.6111H9.37533ZM9.37533 6.1111C9.20957 6.1111 9.05059 6.17695 8.93338 6.29416C8.81617 6.41137 8.75033 6.57034 8.75033 6.7361C8.75033 6.90186 8.81617 7.06083 8.93338 7.17805C9.05059 7.29526 9.20957 7.3611 9.37533 7.3611H15.2087C15.3744 7.3611 15.5334 7.29526 15.6506 7.17805C15.7678 7.06083 15.8337 6.90186 15.8337 6.7361C15.8337 6.57034 15.7678 6.41137 15.6506 6.29416C15.5334 6.17695 15.3744 6.1111 15.2087 6.1111H9.37533ZM3.54199 10.2778C3.04471 10.2778 2.5678 10.4753 2.21617 10.8269C1.86454 11.1786 1.66699 11.6555 1.66699 12.1528V14.2361C1.66699 14.4823 1.71549 14.7261 1.80972 14.9536C1.90395 15.1811 2.04206 15.3878 2.21617 15.5619C2.39028 15.736 2.59698 15.8742 2.82446 15.9684C3.05195 16.0626 3.29576 16.1111 3.54199 16.1111H5.62533C5.87155 16.1111 6.11537 16.0626 6.34286 15.9684C6.57034 15.8742 6.77704 15.736 6.95115 15.5619C7.12526 15.3878 7.26337 15.1811 7.3576 14.9536C7.45183 14.7261 7.50033 14.4823 7.50033 14.2361V12.1528C7.50033 11.6555 7.30278 11.1786 6.95115 10.8269C6.59952 10.4753 6.12261 10.2778 5.62533 10.2778H3.54199ZM2.91699 12.1528C2.91699 11.987 2.98284 11.828 3.10005 11.7108C3.21726 11.5936 3.37623 11.5278 3.54199 11.5278H5.62533C5.79109 11.5278 5.95006 11.5936 6.06727 11.7108C6.18448 11.828 6.25033 11.987 6.25033 12.1528V14.2361C6.25033 14.4019 6.18448 14.5608 6.06727 14.678C5.95006 14.7953 5.79109 14.8611 5.62533 14.8611H3.54199C3.37623 14.8611 3.21726 14.7953 3.10005 14.678C2.98284 14.5608 2.91699 14.4019 2.91699 14.2361V12.1528ZM9.37533 11.1111C9.20957 11.1111 9.05059 11.177 8.93338 11.2942C8.81617 11.4114 8.75033 11.5703 8.75033 11.7361C8.75033 11.9019 8.81617 12.0608 8.93338 12.178C9.05059 12.2953 9.20957 12.3611 9.37533 12.3611H17.7087C17.8744 12.3611 18.0334 12.2953 18.1506 12.178C18.2678 12.0608 18.3337 11.9019 18.3337 11.7361C18.3337 11.5703 18.2678 11.4114 18.1506 11.2942C18.0334 11.177 17.8744 11.1111 17.7087 11.1111H9.37533ZM9.37533 13.6111C9.20957 13.6111 9.05059 13.677 8.93338 13.7942C8.81617 13.9114 8.75033 14.0703 8.75033 14.2361C8.75033 14.4019 8.81617 14.5608 8.93338 14.678C9.05059 14.7953 9.20957 14.8611 9.37533 14.8611H15.2087C15.3744 14.8611 15.5334 14.7953 15.6506 14.678C15.7678 14.5608 15.8337 14.4019 15.8337 14.2361C15.8337 14.0703 15.7678 13.9114 15.6506 13.7942C15.5334 13.677 15.3744 13.6111 15.2087 13.6111H9.37533Z" fill="#525252"/>
</svg>
