<svg width="20" height="21" viewBox="0 0 20 21" fill="none" xmlns="http://www.w3.org/2000/svg">
<path fill-rule="evenodd" clip-rule="evenodd" d="M11.6463 2.16693C11.6821 2.16693 11.7172 2.16994 11.7513 2.17573L11.8654 2.17643C12.0354 2.17643 12.1979 2.2456 12.3162 2.3681L16.5371 6.7656C16.6487 6.88143 16.7113 7.03726 16.7113 7.1981V14.8364C16.7262 16.9273 15.0979 18.6356 13.0037 18.7206L6.32122 18.7214H6.23039C4.18877 18.6753 2.55136 17.0241 2.50147 15.0024L2.50122 5.90893C2.54955 3.84143 4.25705 2.17643 6.30955 2.17643L11.5413 2.17573C11.5754 2.16994 11.6105 2.16693 11.6463 2.16693ZM11.0212 3.4261L6.31122 3.42643C4.93039 3.42643 3.78372 4.54476 3.75122 5.92393V14.8364C3.72039 16.2639 4.84539 17.4398 6.25872 17.4714H12.9787C14.3696 17.4139 15.4712 16.2581 15.4613 14.8414L15.4612 7.9861L13.7863 7.98693C12.2613 7.98276 11.0213 6.73943 11.0213 5.2161L11.0212 3.4261ZM11.4906 12.6737C11.8356 12.6737 12.1156 12.9537 12.1156 13.2987C12.1156 13.6437 11.8356 13.9237 11.4906 13.9237H6.99064C6.64564 13.9237 6.36564 13.6437 6.36564 13.2987C6.36564 12.9537 6.64564 12.6737 6.99064 12.6737H11.4906ZM9.78655 9.54701C10.1316 9.54701 10.4116 9.82701 10.4116 10.172C10.4116 10.517 10.1316 10.797 9.78655 10.797H6.98989C6.64489 10.797 6.36489 10.517 6.36489 10.172C6.36489 9.82701 6.64489 9.54701 6.98989 9.54701H9.78655ZM12.2712 4.12693L12.2713 5.2161C12.2713 6.05276 12.9521 6.73443 13.788 6.73693L14.7762 6.7361L12.2712 4.12693Z" fill="#040726"/>
</svg>
