<svg width="20" height="20" viewBox="0 0 20 20" fill="none" xmlns="http://www.w3.org/2000/svg">
<path d="M15.3665 1.99438H4.63314C4.08108 1.99592 3.55207 2.21591 3.1617 2.60628C2.77133 2.99665 2.55134 3.52566 2.5498 4.07772V14.8111C2.55134 15.3631 2.77133 15.8921 3.1617 16.2825C3.55207 16.6729 4.08108 16.8928 4.63314 16.8944H15.3665C15.9181 16.8913 16.4462 16.6708 16.8362 16.2808C17.2263 15.8908 17.4467 15.3626 17.4498 14.8111V4.07772C17.4467 3.52613 17.2263 2.998 16.8362 2.60796C16.4462 2.21792 15.9181 1.99745 15.3665 1.99438ZM7.25814 16.0611H4.63314C4.30162 16.0611 3.98368 15.9294 3.74925 15.6949C3.51483 15.4605 3.38314 15.1426 3.38314 14.8111V12.2194H7.25814V16.0611ZM7.25814 11.3861H3.38314V7.50272H7.25814V11.3861ZM7.25814 6.66938H3.38314V4.07772C3.38314 3.7462 3.51483 3.42826 3.74925 3.19383C3.98368 2.95941 4.30162 2.82772 4.63314 2.82772H7.25814V6.66938ZM16.6165 14.8111C16.6141 15.1418 16.4816 15.4584 16.2477 15.6923C16.0138 15.9262 15.6973 16.0587 15.3665 16.0611H8.09147V12.2194H16.6165V14.8111ZM16.6165 11.3861H8.09147V7.50272H16.6165V11.3861ZM16.6165 6.66938H8.09147V2.82772H15.3665C15.6973 2.83012 16.0138 2.96258 16.2477 3.19649C16.4816 3.43039 16.6141 3.74694 16.6165 4.07772V6.66938Z" fill="#525252"/>
</svg>
